<svg width="338" height="107" viewBox="0 0 338 107" fill="none" xmlns="http://www.w3.org/2000/svg">
<rect width="338" height="107" rx="5" fill="#FEFFF9"/>
<path d="M81.398 70.495C79.748 70.495 78.518 69.94 77.708 68.83C76.928 67.69 76.418 66.295 76.178 64.645C76.028 63.445 75.788 62.245 75.458 61.045C75.158 59.845 74.663 58.75 73.973 57.76C73.313 56.74 72.368 55.93 71.138 55.33C69.938 54.73 68.363 54.43 66.413 54.43H64.478V64.015C64.478 65.485 64.583 66.55 64.793 67.21C65.003 67.84 65.393 68.26 65.963 68.47C66.533 68.65 67.328 68.8 68.348 68.92L69.248 69.01V70.135L62.588 70H62.543L55.883 70.135V69.01L56.783 68.92C57.833 68.8 58.628 68.65 59.168 68.47C59.738 68.26 60.128 67.84 60.338 67.21C60.548 66.55 60.653 65.485 60.653 64.015V44.035C60.653 42.535 60.548 41.47 60.338 40.84C60.128 40.21 59.738 39.805 59.168 39.625C58.628 39.415 57.833 39.25 56.783 39.13L55.883 39.04V37.915L62.543 38.05H68.843C70.883 38.05 72.773 38.29 74.513 38.77C76.253 39.22 77.648 40.015 78.698 41.155C79.778 42.295 80.318 43.885 80.318 45.925C80.318 47.725 79.913 49.195 79.103 50.335C78.323 51.445 77.273 52.3 75.953 52.9C74.663 53.47 73.253 53.875 71.723 54.115C73.943 54.265 75.743 55.03 77.123 56.41C78.533 57.76 79.433 59.755 79.823 62.395C80.093 64.075 80.423 65.395 80.813 66.355C81.233 67.285 81.683 67.945 82.163 68.335C82.673 68.695 83.183 68.875 83.693 68.875C84.023 68.875 84.338 68.815 84.638 68.695C84.968 68.575 85.253 68.455 85.493 68.335L85.808 69.46C85.328 69.7 84.683 69.925 83.873 70.135C83.063 70.375 82.238 70.495 81.398 70.495ZM68.933 39.22H64.478V53.215H68.258C71.138 53.215 73.148 52.63 74.288 51.46C75.458 50.29 76.043 48.535 76.043 46.195C76.043 43.975 75.518 42.265 74.468 41.065C73.418 39.835 71.573 39.22 68.933 39.22ZM87.1721 70.135V69.01L88.0721 68.92C89.1221 68.8 89.9171 68.65 90.4571 68.47C91.0271 68.26 91.4171 67.84 91.6271 67.21C91.8371 66.55 91.9421 65.485 91.9421 64.015V44.035C91.9421 42.535 91.8371 41.47 91.6271 40.84C91.4171 40.21 91.0271 39.805 90.4571 39.625C89.9171 39.415 89.1221 39.25 88.0721 39.13L87.1721 39.04V37.915L93.8321 38.05H111.292L111.382 41.29L111.742 45.43H110.662C110.452 44.08 110.167 43 109.807 42.19C109.477 41.38 108.997 40.78 108.367 40.39C107.737 39.97 106.882 39.7 105.802 39.58C104.752 39.43 103.387 39.355 101.707 39.355H95.7671V52.54H100.807C101.407 52.54 101.932 52.405 102.382 52.135C102.832 51.835 103.192 51.295 103.462 50.515C103.762 49.735 103.942 48.61 104.002 47.14H105.127L104.992 53.17L105.127 59.83H104.002C104.002 57.64 103.732 56.095 103.192 55.195C102.652 54.265 101.857 53.8 100.807 53.8H95.7671V65.185C95.7671 66.625 96.0821 67.585 96.7121 68.065C97.3421 68.515 98.5121 68.74 100.222 68.74H104.407C106.147 68.74 107.497 68.545 108.457 68.155C109.447 67.765 110.182 66.985 110.662 65.815C111.142 64.615 111.472 62.86 111.652 60.55H112.777L112.462 65.95L112.327 70H93.8321L87.1721 70.135ZM132.326 70.495C129.566 70.495 127.046 69.82 124.766 68.47C122.516 67.12 120.716 65.215 119.366 62.755C118.046 60.295 117.386 57.385 117.386 54.025C117.386 51.595 117.791 49.36 118.601 47.32C119.411 45.28 120.521 43.525 121.931 42.055C123.341 40.585 124.961 39.445 126.791 38.635C128.621 37.825 130.556 37.42 132.596 37.42C133.916 37.42 135.101 37.585 136.151 37.915C137.201 38.245 138.056 38.56 138.716 38.86C139.496 39.19 140.036 39.415 140.336 39.535C140.666 39.655 141.026 39.715 141.416 39.715C141.836 39.715 142.121 39.535 142.271 39.175C142.451 38.785 142.541 38.41 142.541 38.05H143.666L143.576 43.225L143.666 48.49H142.541C142.481 46.45 141.941 44.71 140.921 43.27C139.931 41.8 138.671 40.69 137.141 39.94C135.641 39.16 134.081 38.77 132.461 38.77C128.951 38.77 126.326 40.09 124.586 42.73C122.846 45.37 121.976 49.135 121.976 54.025C121.976 59.185 122.906 62.995 124.766 65.455C126.626 67.915 129.236 69.145 132.596 69.145C134.276 69.145 135.761 68.875 137.051 68.335C138.341 67.795 139.361 67.09 140.111 66.22C140.861 65.32 141.236 64.39 141.236 63.43V62.17C141.236 60.85 140.921 59.905 140.291 59.335C139.691 58.765 138.566 58.405 136.916 58.255L134.981 58.075V56.995L142.451 57.175L149.381 56.995V58.075L147.356 58.255C146.546 58.315 145.886 58.63 145.376 59.2C144.866 59.77 144.611 60.76 144.611 62.17V62.98C144.611 63.67 144.716 64.315 144.926 64.915C145.166 65.515 145.391 66.025 145.601 66.445L146.231 67.57L145.196 68.245C144.806 67.615 144.416 67.195 144.026 66.985C143.666 66.745 143.351 66.625 143.081 66.625C142.601 66.625 142.166 66.745 141.776 66.985C141.386 67.225 140.966 67.51 140.516 67.84C140.006 68.2 139.391 68.59 138.671 69.01C137.981 69.43 137.126 69.775 136.106 70.045C135.086 70.345 133.826 70.495 132.326 70.495ZM151.2 70.135V69.01L152.1 68.92C153.15 68.8 153.945 68.65 154.485 68.47C155.055 68.26 155.445 67.84 155.655 67.21C155.865 66.55 155.97 65.485 155.97 64.015V44.035C155.97 42.535 155.865 41.47 155.655 40.84C155.445 40.21 155.055 39.805 154.485 39.625C153.945 39.415 153.15 39.25 152.1 39.13L151.2 39.04V37.915L157.86 38.05H157.905L164.565 37.915V39.04L163.665 39.13C162.645 39.25 161.85 39.415 161.28 39.625C160.71 39.805 160.32 40.21 160.11 40.84C159.9 41.47 159.795 42.535 159.795 44.035V64.015C159.795 65.485 159.9 66.55 160.11 67.21C160.32 67.84 160.71 68.26 161.28 68.47C161.85 68.65 162.645 68.8 163.665 68.92L164.565 69.01V70.135L157.905 70H157.86L151.2 70.135ZM180.268 70.495C179.068 70.495 177.973 70.3 176.983 69.91C176.023 69.52 175.153 69.13 174.373 68.74C173.713 68.38 173.158 68.11 172.708 67.93C172.288 67.75 171.913 67.66 171.583 67.66C171.163 67.66 170.863 67.84 170.683 68.2C170.533 68.53 170.413 68.905 170.323 69.325L170.188 70H169.063L169.288 64.69L169.153 58.885H170.278L170.773 61C171.103 62.32 171.688 63.61 172.528 64.87C173.398 66.13 174.478 67.165 175.768 67.975C177.088 68.785 178.588 69.19 180.268 69.19C181.198 69.19 182.083 68.995 182.923 68.605C183.793 68.185 184.498 67.555 185.038 66.715C185.608 65.875 185.893 64.78 185.893 63.43C185.893 61.42 185.233 59.8 183.913 58.57C182.623 57.34 180.823 56.17 178.513 55.06L176.623 54.16C174.373 53.08 172.693 51.895 171.583 50.605C170.503 49.285 169.963 47.605 169.963 45.565C169.963 43.975 170.353 42.565 171.133 41.335C171.913 40.105 172.978 39.145 174.328 38.455C175.708 37.765 177.283 37.42 179.053 37.42C180.283 37.42 181.318 37.585 182.158 37.915C182.998 38.245 183.658 38.53 184.138 38.77C184.918 39.16 185.533 39.355 185.983 39.355C186.463 39.355 186.748 38.89 186.838 37.96H187.963L187.828 42.28L187.918 46.645H186.793C186.613 44.965 186.148 43.54 185.398 42.37C184.648 41.17 183.733 40.255 182.653 39.625C181.603 38.995 180.478 38.68 179.278 38.68C177.508 38.68 176.068 39.19 174.958 40.21C173.878 41.23 173.338 42.535 173.338 44.125C173.338 45.835 173.893 47.185 175.003 48.175C176.113 49.135 177.553 50.05 179.323 50.92L181.168 51.82C182.818 52.63 184.228 53.47 185.398 54.34C186.598 55.18 187.513 56.17 188.143 57.31C188.803 58.45 189.133 59.875 189.133 61.585C189.133 63.355 188.728 64.915 187.918 66.265C187.138 67.615 186.073 68.665 184.723 69.415C183.403 70.135 181.918 70.495 180.268 70.495ZM200.858 70.135V69.01L201.848 68.92C203.078 68.8 204.008 68.65 204.638 68.47C205.298 68.26 205.748 67.84 205.988 67.21C206.258 66.55 206.393 65.485 206.393 64.015V39.265H200.048C198.668 39.265 197.573 39.535 196.763 40.075C195.983 40.585 195.293 41.425 194.693 42.595C194.123 43.765 193.448 45.325 192.668 47.275L191.723 47.05L192.848 41.515L193.343 37.915L206.168 38.05H210.443L223.313 37.915L223.808 41.515L224.933 47.05L223.943 47.32C223.253 45.58 222.608 44.11 222.008 42.91C221.438 41.71 220.763 40.81 219.983 40.21C219.203 39.58 218.168 39.265 216.878 39.265H210.218V64.015C210.218 65.485 210.338 66.55 210.578 67.21C210.848 67.84 211.313 68.26 211.973 68.47C212.633 68.65 213.563 68.8 214.763 68.92L215.753 69.01V70.135L208.418 70L200.858 70.135ZM252.389 70.495C250.739 70.495 249.509 69.94 248.699 68.83C247.919 67.69 247.409 66.295 247.169 64.645C247.019 63.445 246.779 62.245 246.449 61.045C246.149 59.845 245.654 58.75 244.964 57.76C244.304 56.74 243.359 55.93 242.129 55.33C240.929 54.73 239.354 54.43 237.404 54.43H235.469V64.015C235.469 65.485 235.574 66.55 235.784 67.21C235.994 67.84 236.384 68.26 236.954 68.47C237.524 68.65 238.319 68.8 239.339 68.92L240.239 69.01V70.135L233.579 70H233.534L226.874 70.135V69.01L227.774 68.92C228.824 68.8 229.619 68.65 230.159 68.47C230.729 68.26 231.119 67.84 231.329 67.21C231.539 66.55 231.644 65.485 231.644 64.015V44.035C231.644 42.535 231.539 41.47 231.329 40.84C231.119 40.21 230.729 39.805 230.159 39.625C229.619 39.415 228.824 39.25 227.774 39.13L226.874 39.04V37.915L233.534 38.05H239.834C241.874 38.05 243.764 38.29 245.504 38.77C247.244 39.22 248.639 40.015 249.689 41.155C250.769 42.295 251.309 43.885 251.309 45.925C251.309 47.725 250.904 49.195 250.094 50.335C249.314 51.445 248.264 52.3 246.944 52.9C245.654 53.47 244.244 53.875 242.714 54.115C244.934 54.265 246.734 55.03 248.114 56.41C249.524 57.76 250.424 59.755 250.814 62.395C251.084 64.075 251.414 65.395 251.804 66.355C252.224 67.285 252.674 67.945 253.154 68.335C253.664 68.695 254.174 68.875 254.684 68.875C255.014 68.875 255.329 68.815 255.629 68.695C255.959 68.575 256.244 68.455 256.484 68.335L256.799 69.46C256.319 69.7 255.674 69.925 254.864 70.135C254.054 70.375 253.229 70.495 252.389 70.495ZM239.924 39.22H235.469V53.215H239.249C242.129 53.215 244.139 52.63 245.279 51.46C246.449 50.29 247.034 48.535 247.034 46.195C247.034 43.975 246.509 42.265 245.459 41.065C244.409 39.835 242.564 39.22 239.924 39.22ZM262.582 70.135V69.01L263.482 68.92C264.532 68.8 265.327 68.65 265.867 68.47C266.437 68.26 266.827 67.84 267.037 67.21C267.247 66.55 267.352 65.485 267.352 64.015V57.085L259.477 43.315C258.787 42.085 258.097 41.17 257.407 40.57C256.717 39.97 255.757 39.55 254.527 39.31L253.222 39.04V37.915L260.062 38.05L266.812 37.915V39.04L265.372 39.175C264.622 39.235 264.022 39.415 263.572 39.715C263.122 40.015 262.897 40.465 262.897 41.065C262.897 41.755 263.227 42.67 263.887 43.81L270.457 55.24L276.982 43.81C277.642 42.61 277.972 41.68 277.972 41.02C277.972 40.39 277.732 39.94 277.252 39.67C276.772 39.4 276.157 39.235 275.407 39.175L274.102 39.04V37.915L280.042 38.14L284.812 37.915V39.04L283.597 39.265C282.637 39.445 281.842 39.79 281.212 40.3C280.612 40.81 279.997 41.62 279.367 42.73L271.177 57.04V64.015C271.177 65.485 271.282 66.55 271.492 67.21C271.702 67.84 272.092 68.26 272.662 68.47C273.232 68.65 274.027 68.8 275.047 68.92L275.947 69.01V70.135L269.287 70H269.242L262.582 70.135Z" fill="black"/>
</svg>
