<svg width="281" height="107" viewBox="0 0 281 107" fill="none" xmlns="http://www.w3.org/2000/svg">
<rect width="281" height="107" rx="5" fill="#FEFFF9"/>
<path d="M105.315 70.495C103.665 70.495 102.435 69.94 101.625 68.83C100.845 67.69 100.335 66.295 100.095 64.645C99.945 63.445 99.705 62.245 99.375 61.045C99.075 59.845 98.58 58.75 97.89 57.76C97.23 56.74 96.285 55.93 95.055 55.33C93.855 54.73 92.28 54.43 90.33 54.43H88.395V64.015C88.395 65.485 88.5 66.55 88.71 67.21C88.92 67.84 89.31 68.26 89.88 68.47C90.45 68.65 91.245 68.8 92.265 68.92L93.165 69.01V70.135L86.505 70H86.46L79.8 70.135V69.01L80.7 68.92C81.75 68.8 82.545 68.65 83.085 68.47C83.655 68.26 84.045 67.84 84.255 67.21C84.465 66.55 84.57 65.485 84.57 64.015V44.035C84.57 42.535 84.465 41.47 84.255 40.84C84.045 40.21 83.655 39.805 83.085 39.625C82.545 39.415 81.75 39.25 80.7 39.13L79.8 39.04V37.915L86.46 38.05H92.76C94.8 38.05 96.69 38.29 98.43 38.77C100.17 39.22 101.565 40.015 102.615 41.155C103.695 42.295 104.235 43.885 104.235 45.925C104.235 47.725 103.83 49.195 103.02 50.335C102.24 51.445 101.19 52.3 99.87 52.9C98.58 53.47 97.17 53.875 95.64 54.115C97.86 54.265 99.66 55.03 101.04 56.41C102.45 57.76 103.35 59.755 103.74 62.395C104.01 64.075 104.34 65.395 104.73 66.355C105.15 67.285 105.6 67.945 106.08 68.335C106.59 68.695 107.1 68.875 107.61 68.875C107.94 68.875 108.255 68.815 108.555 68.695C108.885 68.575 109.17 68.455 109.41 68.335L109.725 69.46C109.245 69.7 108.6 69.925 107.79 70.135C106.98 70.375 106.155 70.495 105.315 70.495ZM92.85 39.22H88.395V53.215H92.175C95.055 53.215 97.065 52.63 98.205 51.46C99.375 50.29 99.96 48.535 99.96 46.195C99.96 43.975 99.435 42.265 98.385 41.065C97.335 39.835 95.49 39.22 92.85 39.22ZM123.194 70.495C121.994 70.495 120.899 70.3 119.909 69.91C118.949 69.52 118.079 69.13 117.299 68.74C116.639 68.38 116.084 68.11 115.634 67.93C115.214 67.75 114.839 67.66 114.509 67.66C114.089 67.66 113.789 67.84 113.609 68.2C113.459 68.53 113.339 68.905 113.249 69.325L113.114 70H111.989L112.214 64.69L112.079 58.885H113.204L113.699 61C114.029 62.32 114.614 63.61 115.454 64.87C116.324 66.13 117.404 67.165 118.694 67.975C120.014 68.785 121.514 69.19 123.194 69.19C124.124 69.19 125.009 68.995 125.849 68.605C126.719 68.185 127.424 67.555 127.964 66.715C128.534 65.875 128.819 64.78 128.819 63.43C128.819 61.42 128.159 59.8 126.839 58.57C125.549 57.34 123.749 56.17 121.439 55.06L119.549 54.16C117.299 53.08 115.619 51.895 114.509 50.605C113.429 49.285 112.889 47.605 112.889 45.565C112.889 43.975 113.279 42.565 114.059 41.335C114.839 40.105 115.904 39.145 117.254 38.455C118.634 37.765 120.209 37.42 121.979 37.42C123.209 37.42 124.244 37.585 125.084 37.915C125.924 38.245 126.584 38.53 127.064 38.77C127.844 39.16 128.459 39.355 128.909 39.355C129.389 39.355 129.674 38.89 129.764 37.96H130.889L130.754 42.28L130.844 46.645H129.719C129.539 44.965 129.074 43.54 128.324 42.37C127.574 41.17 126.659 40.255 125.579 39.625C124.529 38.995 123.404 38.68 122.204 38.68C120.434 38.68 118.994 39.19 117.884 40.21C116.804 41.23 116.264 42.535 116.264 44.125C116.264 45.835 116.819 47.185 117.929 48.175C119.039 49.135 120.479 50.05 122.249 50.92L124.094 51.82C125.744 52.63 127.154 53.47 128.324 54.34C129.524 55.18 130.439 56.17 131.069 57.31C131.729 58.45 132.059 59.875 132.059 61.585C132.059 63.355 131.654 64.915 130.844 66.265C130.064 67.615 128.999 68.665 127.649 69.415C126.329 70.135 124.844 70.495 123.194 70.495ZM150.534 70.45L138.744 42.685C138.354 41.755 137.859 41.005 137.259 40.435C136.689 39.835 135.849 39.43 134.739 39.22L133.839 39.04V37.915L140.544 38.05L147.249 37.915V39.04L145.899 39.175C144.969 39.265 144.219 39.505 143.649 39.895C143.109 40.255 142.839 40.81 142.839 41.56C142.839 42.1 143.004 42.775 143.334 43.585L152.424 65.14L161.154 43.54C161.334 43.12 161.454 42.745 161.514 42.415C161.604 42.055 161.649 41.74 161.649 41.47C161.649 40.75 161.409 40.225 160.929 39.895C160.449 39.535 159.789 39.31 158.949 39.22L157.374 39.04V37.915L163.674 38.05L168.174 37.915V38.995L167.139 39.22C165.999 39.46 165.114 39.925 164.484 40.615C163.854 41.305 163.284 42.295 162.774 43.585L151.974 70.45H150.534ZM169.317 70.135V69.01L170.217 68.92C171.267 68.8 172.062 68.65 172.602 68.47C173.172 68.26 173.562 67.84 173.772 67.21C173.982 66.55 174.087 65.485 174.087 64.015V44.035C174.087 42.535 173.982 41.47 173.772 40.84C173.562 40.21 173.172 39.805 172.602 39.625C172.062 39.415 171.267 39.25 170.217 39.13L169.317 39.04V37.915L175.977 38.05H182.097C183.897 38.05 185.577 38.17 187.137 38.41C188.697 38.62 190.062 39.04 191.232 39.67C192.402 40.27 193.317 41.155 193.977 42.325C194.637 43.495 194.967 45.01 194.967 46.87C194.967 49.54 193.962 51.7 191.952 53.35C189.942 55 187.017 55.825 183.177 55.825H177.912V64.015C177.912 65.485 178.032 66.55 178.272 67.21C178.542 67.84 179.007 68.26 179.667 68.47C180.327 68.65 181.257 68.8 182.457 68.92L183.447 69.01V70.135L175.842 70L169.317 70.135ZM183.852 39.31H177.912V54.475H183.177C185.247 54.475 186.822 54.175 187.902 53.575C188.982 52.975 189.717 52.105 190.107 50.965C190.497 49.825 190.692 48.46 190.692 46.87C190.692 45.16 190.467 43.81 190.017 42.82C189.597 41.8 189.027 41.035 188.307 40.525C187.617 40.015 186.867 39.685 186.057 39.535C185.277 39.385 184.542 39.31 183.852 39.31Z" fill="black"/>
</svg>
